<svg width="16" height="31" viewBox="0 0 16 31" fill="none" xmlns="http://www.w3.org/2000/svg">
<path d="M10.687 11.7625L8.30746 9.382C8.2205 9.295 8.11773 9.27918 8.06239 9.27918C8.00705 9.27918 7.90428 9.295 7.81732 9.382L5.42983 11.7704C5.16104 12.0393 4.74204 12.4743 3.34275 12.4743L6.27572 15.4005C6.72042 15.8448 7.32321 16.0943 7.95171 16.0943C8.58021 16.0943 9.18301 15.8448 9.6277 15.4005L12.5686 12.4664C11.8492 12.4664 11.2483 12.324 10.687 11.7625ZM5.42983 4.60518L7.81732 6.99359C7.88056 7.05686 7.97543 7.0964 8.06239 7.0964C8.14935 7.0964 8.24422 7.05686 8.30746 6.99359L10.6712 4.62891C11.2325 4.04367 11.8729 3.90922 12.5923 3.90922L9.65142 0.975122C9.20673 0.530814 8.60393 0.28125 7.97543 0.28125C7.34693 0.28125 6.74413 0.530814 6.29944 0.975122L3.36646 3.90131C4.75785 3.90131 5.18475 4.36001 5.42983 4.60518Z" fill="white"/>
<path d="M15.1616 6.48746L13.3828 4.70011H12.3867C11.9598 4.70011 11.5329 4.8741 11.2404 5.18253L8.86875 7.55512C8.64739 7.77657 8.35488 7.88729 8.06238 7.88729C7.76117 7.88304 7.47287 7.76429 7.256 7.55512L4.86851 5.15881C4.5681 4.85828 4.15701 4.68429 3.7222 4.68429H2.56008L0.749697 6.50328C0.305559 6.94814 0.0560913 7.55117 0.0560913 8.1799C0.0560913 8.80864 0.305559 9.41167 0.749697 9.85653L2.56008 11.6755H3.73011C4.15701 11.6755 4.5681 11.5015 4.87642 11.201L7.26391 8.8126C7.48527 8.59115 7.77777 8.48043 8.07028 8.48043C8.36279 8.48043 8.6553 8.59115 8.87665 8.8126L11.2562 11.1931C11.5567 11.4936 11.9677 11.6676 12.4026 11.6676H13.3987L15.1774 9.88026C15.6234 9.42739 15.8721 8.81633 15.8692 8.1806C15.8662 7.54486 15.6118 6.93615 15.1616 6.48746Z" fill="white"/>
<path d="M4.52627 21.2728H2.1095V27.7299H2.7921V25.6913H4.52627C6.1682 25.6913 7.16442 24.8611 7.16442 23.4867C7.16442 22.103 6.1682 21.2728 4.52627 21.2728ZM4.50782 25.0917H2.7921V21.8632H4.50782C5.79922 21.8632 6.48182 22.4536 6.48182 23.4867C6.48182 24.5014 5.79922 25.0917 4.50782 25.0917ZM8.70798 21.8171C8.98471 21.8171 9.18764 21.6049 9.18764 21.3374C9.18764 21.0884 8.97548 20.8854 8.70798 20.8854C8.44047 20.8854 8.22831 21.0976 8.22831 21.3466C8.22831 21.6049 8.44047 21.8171 8.70798 21.8171ZM8.3759 27.7299H9.03083V22.8779H8.3759V27.7299ZM14.6904 27.7299L12.7533 25.2393L14.5797 22.8779H13.8603L12.4028 24.7781L10.9454 22.8779H10.2074L12.0338 25.2393L10.1152 27.7299H10.8531L12.4028 25.7005L13.9433 27.7299H14.6904Z" fill="white"/>
</svg>


